<svg width="90" height="128" viewBox="0 0 90 128" fill="none" xmlns="http://www.w3.org/2000/svg">
<path id="Vector" d="M22.5 7.99999L0.500008 15.8V28.7C0.500008 41.2 0.600008 41.7 3.80001 48.2C7.60001 55.9 13 61.2 20.9 64.9C26 67.3 27.8 67.5 43 68C52.7 68.3 60.3 69 61.5 69.7C65.1 71.8 69.2 76.7 68.8 78.7C68.4 81.4 46.1 101.3 44.4 100.6C43.6 100.3 37.8 95.4 31.5 89.8C21.7 81 20.1 79.1 20 76.4C20 73.8 19.4 73.1 15.4 71.2C12.9 70 8.70001 66.9 6.10001 64.5C3.40001 62 1.00001 60 0.600008 60C0.200008 60 0.100008 66.4 0.200008 74.2L0.500008 88.4L22.5 108.2C34.6 119.1 44.7 127.9 45 127.9C45.3 127.9 55.4 119 67.5 108.2C89.2 88.7 89.5 88.4 89.8 84.1C90 81.7 89.2 76.8 88 72.9C85.3 63.8 77.9 55.6 68.8 51.5C62.9 48.8 61.3 48.6 46 48.1C32.3 47.6 28.9 47.2 26.7 45.7C23 43.3 20 38.2 20 34.3C20 31.3 20.3 31.1 32.1 26.1C38.7 23.3 44.5 21 45 21C45.5 21 51.3 23.3 57.9 26.1L70 31.2V37.4V43.6L74.6 45.8C77.1 47 81.3 50.1 83.9 52.5C86.6 55 89 57 89.4 57C89.7 57 89.9 47.7 89.8 36.4L89.5 15.8L68.5 8.39999C57 4.29999 46.8 0.799992 46 0.599992C45.2 0.299992 34.6 3.69999 22.5 7.99999Z" fill="#95FFFF"/>
</svg>
